<svg width="74" height="26" fill="none" xmlns="http://www.w3.org/2000/svg"><path d="M8.66 25.21c-2.46 0-4.48-.58-6.06-1.74C1.02 22.29.17 20.61.05 18.43h6.27c.06.74.28 1.28.66 1.62.38.34.87.51 1.47.51.54 0 .98-.13 1.32-.39.36-.28.54-.66.54-1.14 0-.62-.29-1.1-.87-1.44-.58-.34-1.52-.72-2.82-1.14-1.38-.46-2.5-.9-3.36-1.32-.84-.44-1.58-1.07-2.22-1.89-.62-.84-.93-1.93-.93-3.27 0-1.36.34-2.52 1.02-3.48.68-.98 1.62-1.72 2.82-2.22 1.2-.5 2.56-.75 4.08-.75 2.46 0 4.42.58 5.88 1.74 1.48 1.14 2.27 2.75 2.37 4.83H9.89c-.02-.64-.22-1.12-.6-1.44-.36-.32-.83-.48-1.41-.48-.44 0-.8.13-1.08.39s-.42.63-.42 1.11c0 .4.15.75.45 1.05.32.28.71.53 1.17.75.46.2 1.14.46 2.04.78 1.34.46 2.44.92 3.3 1.38.88.44 1.63 1.07 2.25 1.89.64.8.96 1.82.96 3.06 0 1.26-.32 2.39-.96 3.39-.62 1-1.53 1.79-2.73 2.37-1.18.58-2.58.87-4.2.87ZM25.163 2.8V25h-5.88V2.8h5.88ZM31.482 6.61c-1.04 0-1.88-.28-2.52-.84-.62-.58-.93-1.3-.93-2.16 0-.88.31-1.61.93-2.19.64-.58 1.48-.87 2.52-.87 1.02 0 1.84.29 2.46.87.64.58.96 1.31.96 2.19 0 .86-.32 1.58-.96 2.16-.62.56-1.44.84-2.46.84Zm2.91 1.56V25h-5.88V8.17h5.88ZM36.78 16.57c0-1.74.36-3.26 1.08-4.56.72-1.3 1.72-2.3 3-3 1.3-.7 2.78-1.05 4.44-1.05 2.14 0 3.94.59 5.4 1.77 1.46 1.16 2.4 2.79 2.82 4.89h-6.24c-.36-1.1-1.06-1.65-2.1-1.65-.74 0-1.33.31-1.77.93-.42.6-.63 1.49-.63 2.67s.21 2.08.63 2.7c.44.62 1.03.93 1.77.93 1.06 0 1.76-.55 2.1-1.65h6.24c-.42 2.08-1.36 3.71-2.82 4.89-1.46 1.18-3.26 1.77-5.4 1.77-1.66 0-3.14-.35-4.44-1.05-1.28-.7-2.28-1.7-3-3-.72-1.3-1.08-2.83-1.08-4.59ZM66.493 25l-4.65-6.9V25h-5.88V2.8h5.88v11.97l4.65-6.6h7.05l-6.63 8.46 6.75 8.37h-7.17Z" fill="#000"/></svg>